{"glyphs":{":":{"x_min":0,"x_max":227,"ha":227,"o":"m 87 447 l 189 447 l 176 328 l 73 328 z m 51 118 l 153 118 l 140 0 l 37 0 z"},"$":{"x_min":0,"x_max":469,"ha":469,"o":"m 417 163 q 417 87 366 42 q 314 -2 229 -7 l 223 -65 l 176 -65 l 182 -7 q 131 -3 88 12 q 44 27 20 44 l 47 162 l 119 157 l 109 87 q 142 69 189 64 l 208 240 q 146 253 103 280 q 60 306 60 369 q 60 448 114 486 q 168 523 238 528 l 245 593 l 292 593 l 285 528 q 371 522 425 481 l 421 362 l 349 356 l 346 436 q 330 446 312 452 q 294 457 278 459 l 262 308 q 312 297 364 269 q 417 241 417 163 z m 153 384 q 153 355 170 341 q 188 327 216 319 l 231 458 q 153 448 153 384 z m 324 149 q 324 184 304 201 q 284 218 253 228 l 236 64 q 324 75 324 149 z"},"?":{"x_min":0,"x_max":448,"ha":448,"o":"m 127 459 l 58 465 l 84 595 q 124 624 172 642 q 221 660 270 660 q 342 660 394 626 q 445 592 445 530 q 445 477 412 442 q 378 408 334 383 q 289 358 256 334 q 222 311 222 280 q 222 246 267 246 l 260 188 q 189 182 158 205 q 128 228 128 268 q 128 316 161 346 q 194 376 237 398 q 280 421 313 446 q 346 472 346 512 q 346 580 252 580 q 194 580 151 548 z m 129 0 l 140 111 l 245 111 l 234 0 z"},"<":{"x_min":0,"x_max":394,"ha":394,"o":"m 312 14 l 26 265 l 29 293 l 368 549 l 358 465 l 119 281 l 321 98 z"},"'":{"x_min":0,"x_max":193,"ha":193,"o":"m 144 377 l 69 377 l 93 650 l 179 650 z"},"=":{"x_min":0,"x_max":556,"ha":556,"o":"m 62 359 l 70 423 l 518 423 l 510 359 z m 39 138 l 46 201 l 494 201 l 487 138 z"},"a":{"x_min":0,"x_max":510,"ha":510,"o":"m 467 447 q 456 410 447 374 q 438 339 434 302 l 405 69 l 469 69 l 464 19 l 440 0 l 326 0 l 327 91 q 305 50 269 20 q 233 -10 176 -10 q 102 -10 64 42 q 27 95 27 180 q 27 238 47 302 q 67 366 112 411 q 158 456 234 456 q 335 456 365 372 q 372 405 385 447 z m 245 387 q 196 387 168 356 q 141 325 130 280 q 118 234 118 191 q 118 59 205 59 q 256 59 290 102 q 324 145 335 190 l 346 271 q 347 323 318 355 q 288 387 245 387 z"},"L":{"x_min":0,"x_max":530,"ha":530,"o":"m 472 0 l 10 0 l 18 79 l 95 79 l 147 571 l 70 571 l 78 650 l 345 650 l 337 571 l 235 571 l 183 79 l 404 79 l 438 221 l 514 214 z"},"3":{"x_min":0,"x_max":510,"ha":510,"o":"m 142 352 l 73 360 l 104 483 q 142 503 190 517 q 237 531 281 531 q 355 531 406 495 q 456 459 456 387 q 456 336 427 290 q 398 244 321 218 l 320 214 q 392 200 420 160 q 449 119 449 69 q 449 -28 384 -84 q 318 -141 213 -141 q 118 -141 70 -98 q 21 -55 19 11 l 92 35 q 98 -3 126 -33 q 155 -63 216 -63 q 296 -63 325 -18 q 354 27 354 71 q 354 122 316 148 q 279 174 191 177 l 197 241 q 266 244 301 266 q 336 288 348 317 q 360 346 360 367 q 360 453 258 453 q 212 453 168 432 z"},";":{"x_min":0,"x_max":236,"ha":236,"o":"m 80 326 l 92 445 l 202 445 l 190 326 z m -14 -97 l 64 124 l 148 124 l 71 -97 z"},"J":{"x_min":0,"x_max":449,"ha":449,"o":"m 179 650 l 454 650 l 446 571 l 379 571 l 338 172 q 328 80 278 35 q 227 -10 148 -10 q 80 -10 44 20 q 9 50 -7 96 l 61 145 q 76 104 98 90 q 120 75 149 75 q 197 75 221 102 q 245 128 250 171 l 292 571 l 171 571 z"},"V":{"x_min":0,"x_max":640,"ha":640,"o":"m 668 571 l 610 571 l 324 0 l 258 0 l 92 571 l 30 571 l 38 650 l 275 650 l 267 571 l 188 571 l 308 137 l 312 137 l 520 571 l 440 571 l 448 650 l 677 650 z"},"\"":{"x_min":0,"x_max":369,"ha":369,"o":"m 144 377 l 69 377 l 93 650 l 179 650 z m 320 377 l 245 377 l 269 650 l 355 650 z"},"7":{"x_min":0,"x_max":470,"ha":470,"o":"m 56 521 l 470 521 l 477 473 l 179 -130 l 87 -130 l 378 443 l 127 443 l 116 333 l 36 333 z"},"S":{"x_min":0,"x_max":527,"ha":527,"o":"m 478 197 q 478 97 414 44 q 349 -10 232 -10 q 169 -10 110 6 q 52 21 21 47 l 50 185 l 121 178 l 111 97 q 140 80 172 74 q 205 69 230 69 q 298 69 340 96 q 382 123 382 188 q 382 252 342 270 q 303 288 247 300 q 184 314 128 346 q 72 379 72 469 q 72 571 144 616 q 217 660 301 660 q 357 660 410 644 q 463 627 490 601 l 482 468 l 410 461 l 409 552 q 382 568 354 574 q 325 580 301 580 q 240 580 203 554 q 166 528 166 478 q 166 427 202 409 q 238 391 288 379 q 336 368 380 352 q 423 336 450 300 q 478 265 478 197 z"},"}":{"x_min":0,"x_max":282,"ha":282,"o":"m 171 271 q 119 279 98 302 q 77 325 77 352 q 77 386 106 437 q 134 488 162 543 q 191 598 191 644 q 191 698 135 698 l 72 698 l 79 761 l 142 761 q 206 761 235 730 q 264 698 264 651 q 264 596 236 538 q 207 480 178 430 q 150 380 150 349 q 150 314 184 304 q 218 293 240 293 l 258 293 l 253 249 l 235 249 q 212 249 172 237 q 132 225 132 183 q 132 141 159 66 q 186 -9 186 -79 q 186 -142 150 -182 q 114 -222 39 -222 l -24 -222 l -18 -160 l 45 -160 q 115 -160 115 -82 q 115 -41 100 8 q 86 56 72 101 q 58 146 58 177 q 58 208 84 235 q 109 262 171 271 z"},"Z":{"x_min":0,"x_max":564,"ha":564,"o":"m 487 0 l 4 0 l 4 51 l 416 569 l 416 571 l 170 571 l 133 448 l 58 457 l 102 650 l 544 650 l 548 604 l 134 81 l 133 79 l 417 79 l 456 212 l 532 202 z"},"x":{"x_min":0,"x_max":486,"ha":486,"o":"m 460 21 l 436 0 l 236 0 l 241 47 l 265 69 l 306 69 l 221 192 q 90 107 119 0 l 23 0 q 3 70 60 124 q 116 178 190 227 l 79 378 l 19 378 l 26 425 l 49 447 l 248 447 l 241 398 l 217 378 l 174 378 l 251 266 q 372 356 347 447 l 442 447 q 458 405 434 366 q 409 328 366 294 q 324 260 283 232 l 401 69 l 465 69 z"},")":{"x_min":0,"x_max":276,"ha":276,"o":"m 34 -183 l -45 -183 q 61 -62 115 63 q 169 188 169 323 q 169 423 140 526 q 110 630 50 718 l 131 718 q 189 626 216 525 q 242 424 242 327 q 242 194 192 68 q 142 -58 34 -183 z"},"&":{"x_min":0,"x_max":708,"ha":708,"o":"m 432 369 l 697 369 l 689 291 l 598 291 q 577 248 540 199 q 502 150 455 106 q 513 74 566 74 q 606 74 642 93 l 654 18 q 602 -10 545 -10 q 502 -10 460 6 q 417 21 378 47 q 337 21 292 6 q 248 -10 204 -10 q 133 -10 80 30 q 26 71 26 147 q 26 215 71 254 q 116 294 172 323 q 148 389 148 451 q 148 539 200 600 q 252 660 346 660 q 416 660 458 624 q 500 589 500 528 q 500 450 430 406 q 360 362 271 319 q 319 210 406 140 q 472 200 504 291 l 424 291 z m 410 524 q 410 549 394 570 q 378 591 340 591 q 290 591 263 554 q 236 518 236 463 q 236 416 253 363 q 321 398 366 437 q 410 476 410 524 z m 191 276 q 156 254 135 227 q 114 200 114 160 q 114 108 148 87 q 181 66 229 66 q 279 66 327 87 q 284 126 250 175 q 215 224 191 276 z"},"_":{"x_min":0,"x_max":517,"ha":517,"o":"m 11 -72 l 435 -72 l 429 -133 l 5 -133 z"},"v":{"x_min":0,"x_max":473,"ha":473,"o":"m 231 398 l 207 378 l 154 378 l 238 101 l 244 101 q 302 171 332 231 q 361 291 361 354 q 361 401 343 447 l 439 447 q 452 386 442 320 q 431 255 385 186 q 360 147 315 96 q 270 44 225 0 l 183 0 l 64 378 l 11 378 l 17 425 l 41 447 l 237 447 z"},"O":{"x_min":0,"x_max":703,"ha":703,"o":"m 389 660 q 522 660 599 572 q 676 484 676 359 q 676 259 630 175 q 584 91 504 40 q 424 -10 321 -10 q 186 -10 112 78 q 37 166 37 291 q 37 393 84 476 q 130 560 210 610 q 290 660 389 660 z m 334 71 q 451 71 516 156 q 581 242 581 353 q 581 454 528 516 q 475 579 380 579 q 268 579 200 496 q 132 413 132 299 q 132 208 180 140 q 228 71 334 71 z"},"(":{"x_min":0,"x_max":276,"ha":276,"o":"m 240 718 l 319 718 q 213 597 159 472 q 105 347 105 212 q 105 112 134 8 q 164 -95 224 -183 l 143 -183 q 85 -91 58 10 q 32 111 32 208 q 32 341 82 468 q 132 594 240 718 z"},"C":{"x_min":0,"x_max":626,"ha":626,"o":"m 546 56 q 508 24 446 7 q 384 -10 325 -10 q 187 -10 113 74 q 39 158 39 288 q 39 383 79 468 q 119 553 197 606 q 275 660 389 660 q 464 660 518 637 q 572 614 603 583 l 606 451 l 531 443 l 523 536 q 465 579 381 579 q 271 579 202 504 q 132 429 132 297 q 132 71 342 71 q 421 71 474 100 l 501 196 l 575 188 z"},"W":{"x_min":0,"x_max":921,"ha":921,"o":"m 945 571 l 891 571 l 662 0 l 595 0 l 487 491 l 483 491 l 276 0 l 207 0 l 87 571 l 33 571 l 41 650 l 268 650 l 259 571 l 179 571 l 257 150 l 262 150 l 443 571 l 382 571 l 391 650 l 618 650 l 609 571 l 551 571 l 643 146 l 648 146 l 803 571 l 719 571 l 728 650 l 953 650 z"},"A":{"x_min":0,"x_max":640,"ha":640,"o":"m -14 79 l 46 79 l 296 571 l 199 571 l 207 650 l 396 650 l 564 79 l 625 79 l 617 0 l 386 0 l 394 79 l 468 79 l 440 187 l 188 187 l 135 79 l 216 79 l 208 0 l -21 0 z m 349 519 l 221 255 l 422 255 l 354 519 z"},"f":{"x_min":0,"x_max":308,"ha":308,"o":"m 291 698 q 317 698 347 692 q 377 685 404 664 l 410 555 l 343 547 l 331 622 q 319 627 306 629 q 293 631 283 631 q 217 631 205 536 l 194 447 l 318 447 l 312 402 l 285 378 l 185 378 l 133 -48 q 124 -122 90 -172 q 57 -223 -22 -223 q -76 -223 -112 -192 q -149 -161 -148 -90 l -81 -70 q -82 -124 -62 -139 q -43 -154 -26 -154 q 11 -154 27 -124 q 43 -93 49 -47 l 102 378 l 19 378 l 23 423 l 49 447 l 110 447 l 121 531 q 131 611 178 654 q 224 698 291 698 z"},"Q":{"x_min":0,"x_max":713,"ha":713,"o":"m 389 660 q 522 660 599 572 q 676 484 676 359 q 676 281 647 212 q 618 142 567 91 l 650 1 l 591 -54 l 504 41 q 421 -10 321 -10 q 186 -10 112 78 q 37 166 37 291 q 37 393 84 476 q 130 560 210 610 q 290 660 389 660 z m 355 206 l 414 261 l 512 152 q 581 233 581 353 q 581 454 528 516 q 475 579 380 579 q 268 579 200 496 q 132 413 132 299 q 132 208 180 140 q 228 71 334 71 q 398 71 450 101 z"},"w":{"x_min":0,"x_max":719,"ha":719,"o":"m 495 102 l 499 102 q 605 233 605 354 q 605 406 588 447 l 684 447 q 698 380 685 313 q 672 246 628 177 q 604 140 562 89 q 521 38 481 0 l 440 0 l 368 313 l 363 313 l 209 0 l 161 0 l 61 378 l 12 378 l 19 425 l 43 447 l 236 447 l 230 398 l 206 378 l 150 378 l 205 127 l 210 127 l 362 447 l 417 447 z"},"-":{"x_min":0,"x_max":334,"ha":334,"o":"m 52 269 l 281 269 l 273 194 l 44 194 z"},"E":{"x_min":0,"x_max":572,"ha":572,"o":"m 486 0 l 11 0 l 19 79 l 96 79 l 148 571 l 71 571 l 79 650 l 549 650 l 549 464 l 473 457 l 465 571 l 235 571 l 213 368 l 506 368 l 498 290 l 205 290 l 183 79 l 418 79 l 450 193 l 524 186 z"},"s":{"x_min":0,"x_max":424,"ha":424,"o":"m 186 59 q 283 59 283 126 q 283 164 250 177 q 217 190 167 203 q 124 214 87 237 q 50 260 50 319 q 50 389 102 422 q 154 456 220 456 q 312 456 379 415 l 378 307 l 310 299 l 307 366 q 288 375 268 381 q 248 387 224 387 q 186 387 162 370 q 138 354 138 326 q 138 299 162 286 q 186 274 233 262 q 279 250 326 226 q 372 203 372 133 q 372 64 322 27 q 271 -10 194 -10 q 150 -10 98 2 q 46 14 14 34 l 40 142 l 108 135 l 99 76 q 118 66 142 62 q 166 59 186 59 z"},">":{"x_min":0,"x_max":395,"ha":395,"o":"m 366 265 l 28 14 l 37 98 l 278 281 l 75 465 l 84 549 l 369 293 z"},"l":{"x_min":0,"x_max":244,"ha":244,"o":"m 50 667 l 74 688 l 210 688 l 134 69 l 204 69 l 197 19 l 174 0 l 41 0 l 116 619 l 44 619 z"},"8":{"x_min":0,"x_max":528,"ha":528,"o":"m 229 -10 q 140 -10 84 29 q 27 68 27 147 q 27 224 76 263 q 126 302 190 328 q 144 354 111 388 q 78 423 78 479 q 78 557 142 608 q 207 660 304 660 q 387 660 440 620 q 493 580 493 510 q 493 445 450 408 q 407 372 349 347 q 400 321 440 283 q 479 245 479 180 q 479 92 408 41 q 336 -10 229 -10 z m 174 492 q 174 449 210 423 q 247 397 296 374 q 340 395 371 422 q 402 450 402 496 q 402 544 372 564 q 342 584 298 584 q 245 584 210 559 q 174 534 174 492 z m 242 66 q 302 66 343 94 q 384 122 384 169 q 384 218 340 247 q 296 276 241 301 q 192 278 155 249 q 118 220 118 167 q 118 118 152 92 q 186 66 242 66 z"},"\\":{"x_min":0,"x_max":489,"ha":489,"o":"m 58 688 l 140 688 l 424 0 l 343 0 z"},"e":{"x_min":0,"x_max":439,"ha":439,"o":"m 217 59 q 264 59 290 84 q 315 110 328 144 l 396 129 q 383 73 334 32 q 284 -10 204 -10 q 123 -10 74 39 q 26 88 26 186 q 26 298 88 377 q 150 456 256 456 q 320 456 363 425 q 406 394 406 341 q 406 292 370 257 q 333 222 246 203 q 218 197 185 192 q 152 186 117 181 q 118 124 141 92 q 164 59 217 59 z m 207 252 q 278 268 297 290 q 316 312 316 335 q 316 366 296 378 q 277 391 247 391 q 185 391 156 344 q 126 296 119 238 q 147 242 168 246 q 190 249 207 252 z"},"b":{"x_min":0,"x_max":507,"ha":507,"o":"m 48 667 l 72 688 l 204 688 l 164 362 q 186 401 221 428 q 256 456 311 456 q 388 456 428 402 q 469 349 469 266 q 469 206 448 142 q 427 78 380 34 q 334 -10 258 -10 q 156 -10 124 71 q 120 53 115 36 q 110 18 105 0 l 22 0 q 31 31 40 65 q 48 99 52 132 l 110 619 l 42 619 z m 249 59 q 296 59 324 91 q 353 123 366 168 q 378 214 378 255 q 378 316 354 352 q 331 387 284 387 q 231 387 196 345 q 162 303 152 256 l 141 167 q 142 120 172 90 q 202 59 249 59 z"},"%":{"x_min":0,"x_max":689,"ha":689,"o":"m 172 242 q 45 242 45 368 q 45 442 90 486 q 136 530 209 530 q 335 530 335 404 q 335 334 292 288 q 248 242 172 242 z m 611 521 l 385 265 l 161 0 l 70 0 l 328 286 l 521 521 z m 178 302 q 221 302 242 328 q 264 355 264 399 q 264 470 201 470 q 164 470 140 447 q 115 424 115 374 q 115 302 178 302 z m 481 -10 q 352 -10 352 117 q 352 190 398 234 q 445 278 517 278 q 576 278 610 244 q 644 211 644 152 q 644 82 601 36 q 558 -10 481 -10 z m 487 50 q 572 50 572 147 q 572 219 510 219 q 472 219 448 195 q 424 171 424 122 q 424 50 487 50 z"},"m":{"x_min":0,"x_max":792,"ha":792,"o":"m 57 447 l 178 447 l 178 361 q 201 404 236 430 q 272 456 325 456 q 374 456 406 431 q 439 406 446 354 q 468 400 505 428 q 542 456 596 456 q 658 456 694 416 q 730 375 720 291 l 692 69 l 762 69 l 756 19 l 732 0 l 600 0 l 632 261 q 640 329 620 358 q 600 387 557 387 q 505 387 478 354 q 452 321 444 276 l 444 272 l 411 0 l 328 0 l 359 261 q 367 330 348 358 q 328 387 285 387 q 229 387 202 348 q 176 310 169 259 l 138 0 l 54 0 l 99 378 l 26 378 l 32 425 z"},"#":{"x_min":0,"x_max":574,"ha":574,"o":"m 514 521 l 481 408 l 552 408 l 544 339 l 460 339 l 416 187 l 499 187 l 492 118 l 395 118 l 361 0 l 286 0 l 320 118 l 161 118 l 127 0 l 52 0 l 86 118 l 19 118 l 26 187 l 107 187 l 151 339 l 72 339 l 79 408 l 172 408 l 205 521 l 280 521 l 247 408 l 406 408 l 439 521 z m 182 187 l 341 187 l 385 339 l 226 339 z"},",":{"x_min":0,"x_max":206,"ha":206,"o":"m -21 -97 l 57 124 l 141 124 l 64 -97 z"},"n":{"x_min":0,"x_max":528,"ha":528,"o":"m 57 447 l 178 447 l 179 361 q 203 404 240 430 q 276 456 328 456 q 390 456 428 416 q 466 376 456 291 l 429 69 l 499 69 l 493 19 l 469 0 l 338 0 l 369 261 q 377 329 356 358 q 336 387 291 387 q 239 387 208 351 q 178 315 170 268 l 138 0 l 54 0 l 99 378 l 26 378 l 32 425 z"},"h":{"x_min":0,"x_max":510,"ha":510,"o":"m 45 667 l 70 688 l 202 688 l 163 367 q 186 408 222 432 q 258 456 308 456 q 371 456 410 416 q 448 376 437 291 l 410 69 l 480 69 l 474 19 l 450 0 l 318 0 l 350 261 q 358 329 336 358 q 315 387 272 387 q 221 387 190 353 q 160 319 151 274 l 151 273 l 118 0 l 34 0 l 109 619 l 39 619 z"},"z":{"x_min":0,"x_max":448,"ha":448,"o":"m 377 0 l 13 0 l 4 50 l 309 378 l 129 378 l 106 294 l 40 302 l 69 447 l 406 447 l 420 397 l 118 69 l 317 69 l 349 153 l 416 144 z"},"B":{"x_min":0,"x_max":592,"ha":592,"o":"m 378 650 q 464 650 510 612 q 555 574 555 512 q 555 453 520 410 q 485 366 430 356 l 429 352 q 490 342 519 302 q 548 262 548 205 q 548 122 489 61 q 430 0 317 0 l 12 0 l 20 79 l 95 79 l 147 571 l 71 571 l 80 650 z m 328 371 q 390 371 424 402 q 459 434 459 485 q 459 533 430 552 q 402 571 353 571 l 235 571 l 214 371 z m 306 79 q 374 79 414 112 q 454 144 454 203 q 454 298 348 298 l 206 298 l 183 79 z"},"K":{"x_min":0,"x_max":630,"ha":630,"o":"m 362 79 l 430 79 l 301 292 l 204 292 l 182 79 l 249 79 l 241 0 l 11 0 l 19 79 l 95 79 l 147 571 l 71 571 l 79 650 l 311 650 l 303 571 l 233 571 l 212 368 l 308 368 l 476 572 l 409 572 l 418 651 l 650 651 l 642 572 l 572 572 l 373 338 l 533 79 l 602 79 l 594 0 l 353 0 z"},"R":{"x_min":0,"x_max":603,"ha":603,"o":"m 20 79 l 95 79 l 147 571 l 71 571 l 80 650 l 350 650 q 457 650 510 604 q 562 557 562 481 q 562 331 409 287 l 494 79 l 573 79 l 564 0 l 428 0 l 324 265 l 203 265 l 183 79 l 263 79 l 255 0 l 12 0 z m 310 339 q 397 339 432 377 q 468 415 468 473 q 468 571 328 571 l 235 571 l 210 339 z"},"T":{"x_min":0,"x_max":611,"ha":611,"o":"m 607 446 l 529 439 l 523 571 l 380 571 l 329 79 l 438 79 l 430 0 l 127 0 l 135 79 l 242 79 l 293 571 l 149 571 l 116 439 l 40 446 l 79 650 l 609 650 z"},"P":{"x_min":0,"x_max":566,"ha":566,"o":"m 20 79 l 95 79 l 147 571 l 71 571 l 80 650 l 348 650 q 455 650 506 597 q 558 544 558 464 q 558 353 488 294 q 418 235 315 235 l 200 235 l 183 79 l 288 79 l 280 0 l 12 0 z m 309 313 q 387 313 426 353 q 464 393 464 460 q 464 571 332 571 l 235 571 l 208 313 z"},"|":{"x_min":0,"x_max":232,"ha":232,"o":"m 201 730 l 116 -80 l 41 -80 l 126 730 z"},"t":{"x_min":0,"x_max":348,"ha":348,"o":"m 27 423 l 53 447 l 100 447 l 114 560 l 142 588 l 202 588 l 184 447 l 331 447 l 325 402 l 299 378 l 176 378 l 147 140 q 137 59 194 59 q 215 59 232 74 q 250 88 266 143 l 326 122 q 308 54 276 22 q 244 -10 185 -10 q 120 -10 87 28 q 54 66 62 132 l 92 378 l 21 378 z"},"M":{"x_min":0,"x_max":859,"ha":859,"o":"m 21 79 l 96 79 l 148 571 l 67 571 l 75 650 l 231 650 l 420 174 l 424 174 l 704 650 l 862 650 l 854 571 l 773 571 l 721 79 l 797 79 l 789 0 l 556 0 l 564 79 l 633 79 l 671 444 l 668 444 l 427 39 l 384 39 l 222 450 l 218 450 l 179 79 l 250 79 l 242 0 l 13 0 z"},"g":{"x_min":0,"x_max":517,"ha":517,"o":"m 387 447 l 525 447 l 519 398 l 495 378 l 449 378 l 404 11 q 392 -88 340 -156 q 288 -223 180 -223 q 114 -223 62 -190 q 11 -157 -1 -87 l 62 -55 q 74 -104 109 -126 q 144 -148 186 -148 q 300 -148 320 13 l 329 88 q 306 48 268 19 q 230 -10 174 -10 q 100 -10 63 42 q 26 95 26 177 q 26 237 48 302 q 69 366 116 411 q 162 456 238 456 q 337 456 369 376 z m 248 387 q 178 387 148 322 q 117 257 117 187 q 117 59 203 59 q 256 59 294 103 q 331 147 342 193 l 351 267 q 353 320 324 354 q 295 387 248 387 z"},"j":{"x_min":0,"x_max":247,"ha":247,"o":"m 123 552 l 134 655 l 221 655 l 210 552 z m 24 425 l 48 447 l 202 447 l 146 -8 q 133 -107 98 -164 q 62 -221 3 -223 q -22 -223 -43 -217 q -64 -211 -82 -201 l -79 -141 q -27 -162 10 -139 q 48 -116 62 -8 l 109 378 l 18 378 z"},"i":{"x_min":0,"x_max":261,"ha":261,"o":"m 121 552 l 132 655 l 219 655 l 208 552 z m 35 425 l 59 447 l 195 447 l 148 69 l 218 69 l 212 19 l 188 0 l 56 0 l 101 378 l 29 378 z"},"y":{"x_min":0,"x_max":472,"ha":472,"o":"m 238 101 l 244 101 q 302 170 331 230 q 360 291 360 354 q 360 402 341 447 l 438 447 q 452 386 441 320 q 430 255 384 186 q 337 113 255 30 l 231 -144 l 304 -144 l 299 -192 l 274 -213 l 64 -213 l 70 -166 l 94 -144 l 147 -144 l 172 33 l 65 378 l 11 378 l 17 425 l 41 447 l 237 447 l 231 398 l 207 378 l 154 378 z"},"@":{"x_min":0,"x_max":887,"ha":887,"o":"m 624 302 l 604 136 q 604 134 603 126 q 602 117 602 113 q 601 88 612 70 q 624 51 653 51 q 716 51 744 126 q 773 202 773 289 q 773 403 732 468 q 691 533 626 560 q 561 587 488 587 q 376 587 289 536 q 202 486 152 396 q 102 306 102 190 q 102 24 196 -56 q 289 -135 417 -135 q 470 -135 526 -121 q 582 -107 629 -76 l 653 -130 q 601 -162 538 -182 q 474 -202 404 -202 q 244 -202 136 -96 q 29 9 29 183 q 29 312 90 419 q 150 526 254 590 q 357 654 486 654 q 574 654 657 618 q 740 583 794 507 q 848 431 848 310 q 848 242 826 168 q 805 93 758 42 q 710 -10 632 -10 q 577 -10 547 18 q 517 47 515 88 q 493 48 458 19 q 422 -10 366 -10 q 292 -10 254 42 q 217 95 217 180 q 217 238 237 302 q 257 366 302 411 q 348 456 424 456 q 524 456 554 371 q 558 390 563 409 q 568 428 575 447 l 657 447 q 646 413 637 375 q 628 337 624 302 z m 433 387 q 362 387 335 322 q 308 256 308 191 q 308 59 395 59 q 447 59 481 103 q 515 147 525 192 l 536 278 q 534 328 505 358 q 476 387 433 387 z"},".":{"x_min":0,"x_max":213,"ha":213,"o":"m 24 0 l 36 119 l 146 119 l 134 0 z"},"p":{"x_min":0,"x_max":524,"ha":524,"o":"m 210 -192 l 185 -213 l -35 -213 l -29 -166 l -5 -144 l 35 -144 l 99 378 l 27 378 l 33 425 l 57 447 l 179 447 l 177 353 q 199 395 235 426 q 271 456 328 456 q 405 456 446 402 q 486 349 486 266 q 486 206 466 142 q 445 78 398 34 q 352 -10 274 -10 q 180 -10 145 63 l 119 -144 l 215 -144 z m 266 59 q 313 59 342 91 q 370 123 382 168 q 395 214 395 255 q 395 316 371 352 q 347 387 301 387 q 245 387 210 340 q 176 294 167 245 l 159 176 q 158 126 187 92 q 216 59 266 59 z"},"X":{"x_min":0,"x_max":623,"ha":623,"o":"m 587 0 l 356 0 l 364 79 l 433 79 l 308 274 l 149 79 l 216 79 l 208 0 l -22 0 l -13 79 l 51 79 l 270 335 l 112 571 l 50 571 l 58 650 l 284 650 l 275 571 l 213 571 l 327 397 l 470 571 l 412 571 l 421 650 l 644 650 l 635 571 l 569 571 l 366 337 l 537 79 l 595 79 z"},"*":{"x_min":0,"x_max":407,"ha":407,"o":"m 394 549 l 275 487 l 381 424 l 341 371 l 246 439 l 239 326 l 176 326 l 194 439 l 84 371 l 56 424 l 176 486 l 69 549 l 108 603 l 204 533 l 211 650 l 274 650 l 256 533 l 365 603 z"},"Y":{"x_min":0,"x_max":604,"ha":604,"o":"m 630 571 l 570 571 l 344 251 l 326 79 l 435 79 l 426 0 l 126 0 l 134 79 l 239 79 l 257 251 l 91 571 l 30 571 l 39 650 l 276 650 l 268 571 l 191 571 l 311 332 l 316 332 l 480 571 l 402 571 l 410 650 l 638 650 z"},"c":{"x_min":0,"x_max":440,"ha":440,"o":"m 248 387 q 180 387 148 328 q 117 270 117 193 q 117 132 138 96 q 160 59 213 59 q 295 59 328 170 l 396 155 q 382 95 336 42 q 290 -10 201 -10 q 118 -10 72 42 q 26 95 26 188 q 26 249 48 311 q 70 373 119 414 q 168 456 249 456 q 335 456 396 412 l 401 297 l 330 289 l 322 366 q 289 387 248 387 z"},"!":{"x_min":0,"x_max":243,"ha":243,"o":"m 211 650 l 145 203 l 81 203 l 109 650 z m 43 0 l 55 111 l 159 111 l 148 0 z"},"/":{"x_min":0,"x_max":380,"ha":380,"o":"m 385 688 l 100 0 l 19 0 l 303 688 z"},"[":{"x_min":0,"x_max":283,"ha":283,"o":"m 26 -223 l 130 760 l 316 760 l 309 698 l 197 698 l 107 -161 l 219 -161 l 212 -223 z"},"6":{"x_min":0,"x_max":526,"ha":526,"o":"m 478 232 q 478 137 420 64 q 363 -10 246 -10 q 134 -10 89 62 q 44 134 44 258 q 44 354 70 446 q 96 539 158 600 q 220 660 326 660 q 444 660 502 572 l 445 518 q 401 582 317 582 q 234 582 191 510 q 148 438 139 305 q 158 342 202 375 q 246 408 317 408 q 405 408 442 356 q 478 305 478 232 z m 386 221 q 386 274 363 303 q 340 332 285 332 q 214 332 180 291 q 145 250 136 206 q 138 144 162 108 q 185 71 251 71 q 324 71 355 114 q 386 158 386 221 z"},"r":{"x_min":0,"x_max":347,"ha":347,"o":"m 183 447 l 184 340 q 201 386 230 422 q 258 457 299 457 q 326 457 352 439 l 337 350 q 308 365 284 365 q 246 365 219 333 q 192 301 181 257 l 157 69 l 247 69 l 241 21 l 217 0 l -3 0 l 4 47 l 27 69 l 71 69 l 109 378 l 37 378 l 43 425 l 67 447 z"},"2":{"x_min":0,"x_max":511,"ha":511,"o":"m 131 352 l 62 360 l 94 489 q 138 510 189 520 q 240 531 282 531 q 376 531 414 487 q 451 443 451 390 q 451 318 398 260 q 344 202 270 157 q 196 112 135 79 l 371 79 l 386 158 l 457 152 l 434 0 l 22 0 l 21 71 q 170 165 262 232 q 354 300 354 374 q 354 453 255 453 q 236 453 208 448 q 179 442 156 432 z"},"{":{"x_min":0,"x_max":282,"ha":282,"o":"m 110 267 q 162 259 183 236 q 204 213 204 186 q 204 152 176 101 q 147 50 118 -5 q 90 -60 90 -106 q 90 -160 146 -160 l 209 -160 l 202 -223 l 139 -223 q 75 -223 46 -192 q 17 -160 17 -113 q 17 -58 46 0 q 74 58 102 108 q 131 158 131 189 q 131 224 98 234 q 64 245 41 245 l 23 245 l 28 289 l 46 289 q 69 289 109 301 q 149 313 149 355 q 149 397 122 472 q 95 547 95 617 q 95 680 131 720 q 167 760 242 760 l 305 760 l 299 698 l 236 698 q 166 698 166 620 q 166 579 180 530 q 194 482 208 437 q 223 392 223 361 q 223 330 198 303 q 172 276 110 267 z"},"9":{"x_min":0,"x_max":526,"ha":526,"o":"m 44 288 q 44 383 102 456 q 159 530 276 530 q 388 530 433 458 q 478 386 478 262 q 478 166 452 74 q 426 -19 364 -80 q 302 -140 196 -140 q 78 -140 20 -52 l 77 2 q 121 -62 205 -62 q 288 -62 331 10 q 374 82 383 215 q 364 178 320 145 q 276 112 205 112 q 117 112 80 164 q 44 215 44 288 z m 136 299 q 136 246 159 217 q 182 188 237 188 q 308 188 342 229 q 377 270 386 314 q 384 376 360 412 q 337 449 271 449 q 198 449 167 406 q 136 362 136 299 z"}," ":{"x_min":0,"x_max":208,"ha":208,"o":""},"I":{"x_min":0,"x_max":319,"ha":319,"o":"m 19 79 l 95 79 l 147 571 l 71 571 l 79 650 l 318 650 l 310 571 l 234 571 l 182 79 l 259 79 l 250 0 l 11 0 z"},"H":{"x_min":0,"x_max":733,"ha":733,"o":"m 20 79 l 95 79 l 147 571 l 71 571 l 80 650 l 319 650 l 310 571 l 233 571 l 212 369 l 538 369 l 559 571 l 484 571 l 493 650 l 731 650 l 723 571 l 647 571 l 595 79 l 672 79 l 663 0 l 425 0 l 433 79 l 508 79 l 530 292 l 204 292 l 182 79 l 259 79 l 251 0 l 12 0 z"},"4":{"x_min":0,"x_max":537,"ha":537,"o":"m 371 -131 l 283 -131 l 301 38 l 4 38 l 3 114 l 264 521 l 440 521 l 397 114 l 499 114 l 482 38 l 389 38 z m 309 114 l 343 443 l 295 443 l 87 114 z"},"~":{"x_min":0,"x_max":590,"ha":590,"o":"m 390 193 q 346 193 314 210 q 282 228 251 246 q 220 263 181 263 q 159 263 135 252 q 111 240 82 199 l 35 232 q 70 289 111 316 q 152 343 193 343 q 233 343 264 326 q 294 308 325 290 q 356 273 398 273 q 428 273 452 288 q 475 304 505 348 l 557 311 q 520 254 480 224 q 439 193 390 193 z"},"D":{"x_min":0,"x_max":682,"ha":682,"o":"m 11 0 l 20 78 l 96 78 l 148 572 l 71 572 l 79 650 l 362 650 q 507 650 580 570 q 654 491 654 361 q 654 206 558 103 q 461 0 299 0 z m 302 78 q 423 78 492 153 q 561 228 561 353 q 561 456 508 514 q 456 572 353 572 l 234 572 l 182 78 z"},"^":{"x_min":0,"x_max":450,"ha":450,"o":"m 236 654 l 291 654 l 424 371 l 345 371 l 255 569 l 128 371 l 48 371 z"},"0":{"x_min":0,"x_max":566,"ha":566,"o":"m 37 223 q 37 349 108 440 q 179 530 310 530 q 420 530 472 464 q 524 397 524 289 q 524 153 450 72 q 377 -10 253 -10 q 150 -10 94 50 q 37 110 37 223 z m 133 233 q 133 156 162 113 q 190 70 261 70 q 338 70 384 125 q 430 180 430 289 q 430 366 401 408 q 372 449 300 449 q 219 449 176 392 q 133 336 133 233 z"},"F":{"x_min":0,"x_max":544,"ha":544,"o":"m 540 459 l 462 451 l 456 571 l 234 571 l 210 339 l 493 339 l 485 261 l 202 261 l 182 79 l 292 79 l 284 0 l 11 0 l 19 79 l 95 79 l 147 571 l 71 571 l 79 650 l 540 650 z"},"`":{"x_min":0,"x_max":431,"ha":431,"o":"m 396 516 l 208 617 l 250 688 l 418 553 z"},"k":{"x_min":0,"x_max":453,"ha":453,"o":"m 45 667 l 70 688 l 202 688 l 150 262 l 224 262 q 313 345 323 447 l 410 447 q 407 385 370 330 q 332 274 274 234 l 364 69 l 428 69 l 422 19 l 398 0 l 312 0 l 206 200 l 142 200 l 118 0 l 34 0 l 109 619 l 39 619 z"},"u":{"x_min":0,"x_max":528,"ha":528,"o":"m 491 69 l 485 21 l 460 0 l 339 0 l 338 85 q 315 42 279 16 q 243 -9 191 -9 q 129 -9 90 30 q 52 70 62 156 l 89 378 l 19 378 l 25 427 l 49 447 l 181 447 l 150 185 q 141 118 162 89 q 182 60 228 60 q 278 60 307 94 q 336 127 345 172 l 379 447 l 464 447 l 417 69 z"},"]":{"x_min":0,"x_max":282,"ha":282,"o":"m 255 760 l 151 -223 l -35 -223 l -28 -161 l 84 -161 l 174 698 l 62 698 l 69 760 z"},"U":{"x_min":0,"x_max":694,"ha":694,"o":"m 474 650 l 700 650 l 692 571 l 631 571 l 600 267 q 592 198 564 134 q 537 71 479 30 q 421 -10 323 -10 q 181 -10 131 70 q 81 151 92 256 l 125 571 l 63 571 l 71 650 l 305 650 l 296 571 l 213 571 l 180 259 q 172 172 207 122 q 242 71 331 71 q 496 71 518 267 l 549 571 l 466 571 z"},"o":{"x_min":0,"x_max":481,"ha":481,"o":"m 26 191 q 26 295 84 376 q 143 456 260 456 q 358 456 400 397 q 443 338 443 252 q 443 140 380 65 q 318 -10 209 -10 q 118 -10 72 45 q 26 100 26 191 z m 118 197 q 118 136 138 98 q 159 59 217 59 q 289 59 320 116 q 352 172 352 249 q 352 314 330 350 q 307 387 250 387 q 184 387 151 336 q 118 284 118 197 z"},"N":{"x_min":0,"x_max":720,"ha":720,"o":"m 24 79 l 97 79 l 149 571 l 67 571 l 75 650 l 219 650 l 518 182 l 521 182 l 561 571 l 468 571 l 477 650 l 729 650 l 721 571 l 644 571 l 585 0 l 532 0 l 224 483 l 221 483 l 178 79 l 276 79 l 268 0 l 16 0 z"},"+":{"x_min":0,"x_max":408,"ha":408,"o":"m 31 249 l 37 313 l 180 313 l 195 455 l 257 455 l 242 313 l 377 313 l 371 249 l 235 249 l 220 108 l 158 108 l 173 249 z"},"G":{"x_min":0,"x_max":669,"ha":669,"o":"m 642 263 l 598 263 l 570 0 l 502 0 l 501 82 q 469 42 418 16 q 366 -10 299 -10 q 178 -10 108 75 q 38 160 38 290 q 38 392 81 476 q 124 560 203 610 q 282 660 390 660 q 460 660 519 638 q 578 617 610 583 l 614 456 l 539 448 l 529 536 q 506 553 468 566 q 431 579 383 579 q 272 579 202 502 q 131 426 131 296 q 131 186 182 128 q 234 71 321 71 q 404 71 450 116 q 497 160 505 220 l 509 263 l 364 263 l 373 342 l 651 342 z"},"q":{"x_min":0,"x_max":504,"ha":504,"o":"m 439 -192 l 414 -213 l 199 -213 l 205 -166 l 229 -144 l 300 -144 l 329 87 q 305 47 268 18 q 230 -10 174 -10 q 100 -10 63 42 q 26 95 26 177 q 26 237 48 302 q 69 366 116 411 q 162 456 238 456 q 340 456 370 371 q 377 407 390 447 l 473 447 q 462 410 453 374 q 444 339 440 302 l 384 -144 l 445 -144 z m 249 387 q 176 387 146 322 q 117 257 117 188 q 117 59 204 59 q 256 59 294 103 q 331 147 342 193 l 351 272 q 352 323 322 355 q 292 387 249 387 z"},"d":{"x_min":0,"x_max":514,"ha":514,"o":"m 303 667 l 327 688 l 487 688 l 410 69 l 481 69 l 476 19 l 452 0 l 331 0 l 332 93 q 309 52 270 21 q 232 -10 174 -10 q 100 -10 63 42 q 26 95 26 177 q 26 237 48 302 q 69 366 116 411 q 162 456 238 456 q 330 456 364 384 l 393 619 l 297 619 z m 249 387 q 176 387 146 322 q 117 257 117 188 q 117 59 204 59 q 256 59 294 104 q 331 148 341 194 l 351 276 q 351 326 322 356 q 292 387 249 387 z"},"1":{"x_min":0,"x_max":381,"ha":381,"o":"m 28 79 l 144 79 l 182 442 l 67 442 l 75 521 l 280 521 l 233 79 l 343 79 l 334 0 l 20 0 z"},"5":{"x_min":0,"x_max":505,"ha":505,"o":"m 448 81 q 448 -24 384 -82 q 320 -140 213 -140 q 119 -140 70 -98 q 22 -56 21 11 l 94 35 q 99 -6 127 -34 q 155 -63 213 -63 q 284 -63 318 -23 q 351 17 351 74 q 351 150 300 173 q 250 196 179 196 q 159 196 136 195 q 114 194 93 192 l 66 221 l 98 521 l 463 521 l 459 370 l 383 363 l 378 443 l 172 443 l 154 271 q 165 272 176 272 q 188 272 199 272 q 300 272 374 235 q 448 198 448 81 z"}}}
